<?xml version="1.0" encoding="utf-8"?>
<!-- Generator: Adobe Illustrator 23.0.0, SVG Export Plug-In . SVG Version: 6.00 Build 0)  -->
<svg version="1.1" id="Layer_1" focusable="false" xmlns="http://www.w3.org/2000/svg" xmlns:xlink="http://www.w3.org/1999/xlink"
	 x="0px" y="0px" viewBox="0 0 512 512" style="enable-background:new 0 0 512 512;" xml:space="preserve">
<style type="text/css">
	.st0{fill:#000000;}
</style>
<path class="st0" d="M256,8C119,8,8,119,8,256s111,248,248,248s248-111,248-248S393,8,256,8z M256,456c-110.5,0-200-89.5-200-200
	S145.5,56,256,56s200,89.5,200,200S366.5,456,256,456z M352,176v160c0,8.8-7.2,16-16,16h-48c-8.8,0-16-7.2-16-16V176
	c0-8.8,7.2-16,16-16h48C344.8,160,352,167.2,352,176z M240,176v160c0,8.8-7.2,16-16,16h-48c-8.8,0-16-7.2-16-16V176
	c0-8.8,7.2-16,16-16h48C232.8,160,240,167.2,240,176z"/>
</svg>
