<?xml version="1.0" encoding="utf-8"?>
<!-- Generator: Adobe Illustrator 23.0.0, SVG Export Plug-In . SVG Version: 6.00 Build 0)  -->
<svg version="1.1" id="Layer_1" focusable="false" xmlns="http://www.w3.org/2000/svg" xmlns:xlink="http://www.w3.org/1999/xlink"
	 x="0px" y="0px" viewBox="0 0 512 512" style="enable-background:new 0 0 512 512;" xml:space="preserve">
<style type="text/css">
	.st0{fill:#000000;}
</style>
<path class="st0" d="M504,256C504,119,393,8,256,8S8,119,8,256s111,248,248,248S504,393,504,256z M56,256c0-110.5,89.5-200,200-200
	s200,89.5,200,200s-89.5,200-200,200S56,366.5,56,256z M352,176v160c0,8.8-7.2,16-16,16H176c-8.8,0-16-7.2-16-16V176
	c0-8.8,7.2-16,16-16h160C344.8,160,352,167.2,352,176z"/>
</svg>
